<?xml version="1.0" standalone="no"?>
<!DOCTYPE svg PUBLIC "-//W3C//DTD SVG 1.1//EN" "http://www.w3.org/Graphics/SVG/1.1/DTD/svg11.dtd">
<svg width="375" height="582" version="1.1" xmlns="http://www.w3.org/2000/svg">
<rect x="209" y="28" width="63" height="22" style="fill:rgb(255,255,255);stroke:rgb(0,0,0);stroke-width:1"/>
<rect x="206" y="25" width="63" height="22" style="fill:rgb(255,255,255);stroke:rgb(0,0,0);stroke-width:1"/>
<text x="237.5" y="36" style="font-family:Arial;font-size:8pt;fill:rgb(0,0,0);font-weight:bold;text-anchor:middle;dominant-baseline:central">loc_list</text>
<text x="264" y="57" style="font-family:Arial;font-size:7.2pt;fill:rgb(0,0,0);text-anchor:end;dominant-baseline:central">1..∞</text>
<rect x="264" y="31" width="10" height="10" style="fill:rgb(255,255,255);stroke:rgb(0,0,0);stroke-width:1"/>
<line x1="266" y1="36" x2="272" y2="36" style="stroke:rgb(0,0,0);stroke-width:1"/>
<line x1="269" y1="33" x2="269" y2="39" style="stroke:rgb(0,0,0);stroke-width:1"/>

<rect x="206" y="77" width="138" height="22" style="fill:rgb(255,255,255);stroke:rgb(0,0,0);stroke-width:1;stroke-dasharray:4,1"/>
<text x="275" y="88" style="font-family:Arial;font-size:8pt;fill:rgb(0,0,0);font-weight:bold;text-anchor:middle;dominant-baseline:central">custom_attributes_list</text>
<line x1="207" y1="98" x2="210" y2="95" style="stroke:rgb(0,0,0);stroke-width:2"/>
<path d="M210 95 L212 97 L213 92 L208 93 L210 95 Z" style="fill:rgb(0,0,0)"/>
<rect x="339" y="83" width="10" height="10" style="fill:rgb(255,255,255);stroke:rgb(0,0,0);stroke-width:1"/>
<line x1="341" y1="88" x2="347" y2="88" style="stroke:rgb(0,0,0);stroke-width:1"/>
<line x1="344" y1="85" x2="344" y2="91" style="stroke:rgb(0,0,0);stroke-width:1"/>

<rect x="206" y="129" width="122" height="22" style="fill:rgb(255,255,255);stroke:rgb(0,0,0);stroke-width:1"/>
<text x="267" y="140" style="font-family:Arial;font-size:8pt;fill:rgb(0,0,0);font-weight:bold;text-anchor:middle;dominant-baseline:central">connection_1d_type</text>
<line x1="208" y1="131" x2="216" y2="131" style="stroke:rgb(0,0,0);stroke-width:1"/>
<line x1="208" y1="133" x2="214" y2="133" style="stroke:rgb(0,0,0);stroke-width:1"/>
<line x1="208" y1="135" x2="214" y2="135" style="stroke:rgb(0,0,0);stroke-width:1"/>
<line x1="208" y1="137" x2="214" y2="137" style="stroke:rgb(0,0,0);stroke-width:1"/>
<line x1="207" y1="150" x2="210" y2="147" style="stroke:rgb(0,0,0);stroke-width:2"/>
<path d="M210 147 L212 149 L213 144 L208 145 L210 147 Z" style="fill:rgb(0,0,0)"/>

<line x1="201" y1="156" x2="201" y2="176" style="stroke:rgb(0,0,0);stroke-width:1;stroke-dasharray:4,1"/>
<line x1="201" y1="176" x2="206" y2="181" style="stroke:rgb(0,0,0);stroke-width:1;stroke-dasharray:4,1"/>
<line x1="203" y1="154" x2="201" y2="156" style="stroke:rgb(0,0,0);stroke-width:1;stroke-dasharray:4,1"/>
<path d="M203 154 L205 156 L206 151 L201 152 L203 154 Z" style="fill:rgb(255,255,255);stroke:rgb(0,0,0);stroke-width:1"/>
<rect x="206" y="181" width="77" height="22" style="fill:rgb(255,255,255);stroke:rgb(0,0,0);stroke-width:1"/>
<text x="244.5" y="192" style="font-family:Arial;font-size:8pt;fill:rgb(0,0,0);font-weight:bold;text-anchor:middle;dominant-baseline:central">seamweld</text>
<rect x="278" y="187" width="10" height="10" style="fill:rgb(255,255,255);stroke:rgb(0,0,0);stroke-width:1"/>
<line x1="280" y1="192" x2="286" y2="192" style="stroke:rgb(0,0,0);stroke-width:1"/>
<line x1="283" y1="189" x2="283" y2="195" style="stroke:rgb(0,0,0);stroke-width:1"/>

<line x1="201" y1="156" x2="201" y2="228" style="stroke:rgb(0,0,0);stroke-width:1;stroke-dasharray:4,1"/>
<line x1="201" y1="228" x2="206" y2="233" style="stroke:rgb(0,0,0);stroke-width:1;stroke-dasharray:4,1"/>
<line x1="203" y1="154" x2="201" y2="156" style="stroke:rgb(0,0,0);stroke-width:1;stroke-dasharray:4,1"/>
<path d="M203 154 L205 156 L206 151 L201 152 L203 154 Z" style="fill:rgb(255,255,255);stroke:rgb(0,0,0);stroke-width:1"/>
<rect x="206" y="233" width="90" height="22" style="fill:rgb(255,255,255);stroke:rgb(0,0,0);stroke-width:1"/>
<text x="251" y="244" style="font-family:Arial;font-size:8pt;fill:rgb(0,0,0);font-weight:bold;text-anchor:middle;dominant-baseline:central">adhesive_line</text>

<line x1="201" y1="156" x2="201" y2="280" style="stroke:rgb(0,0,0);stroke-width:1;stroke-dasharray:4,1"/>
<line x1="201" y1="280" x2="206" y2="285" style="stroke:rgb(0,0,0);stroke-width:1;stroke-dasharray:4,1"/>
<line x1="203" y1="154" x2="201" y2="156" style="stroke:rgb(0,0,0);stroke-width:1;stroke-dasharray:4,1"/>
<path d="M203 154 L205 156 L206 151 L201 152 L203 154 Z" style="fill:rgb(255,255,255);stroke:rgb(0,0,0);stroke-width:1"/>
<rect x="206" y="285" width="74" height="22" style="fill:rgb(255,255,255);stroke:rgb(0,0,0);stroke-width:1"/>
<text x="243" y="296" style="font-family:Arial;font-size:8pt;fill:rgb(0,0,0);font-weight:bold;text-anchor:middle;dominant-baseline:central">hemming</text>
<rect x="275" y="291" width="10" height="10" style="fill:rgb(255,255,255);stroke:rgb(0,0,0);stroke-width:1"/>
<line x1="277" y1="296" x2="283" y2="296" style="stroke:rgb(0,0,0);stroke-width:1"/>
<line x1="280" y1="293" x2="280" y2="299" style="stroke:rgb(0,0,0);stroke-width:1"/>

<line x1="201" y1="156" x2="201" y2="332" style="stroke:rgb(0,0,0);stroke-width:1;stroke-dasharray:4,1"/>
<line x1="201" y1="332" x2="206" y2="337" style="stroke:rgb(0,0,0);stroke-width:1;stroke-dasharray:4,1"/>
<line x1="203" y1="154" x2="201" y2="156" style="stroke:rgb(0,0,0);stroke-width:1;stroke-dasharray:4,1"/>
<path d="M203 154 L205 156 L206 151 L201 152 L203 154 Z" style="fill:rgb(255,255,255);stroke:rgb(0,0,0);stroke-width:1"/>
<rect x="206" y="337" width="154" height="22" style="fill:rgb(255,255,255);stroke:rgb(0,0,0);stroke-width:1"/>
<text x="283" y="348" style="font-family:Arial;font-size:8pt;fill:rgb(0,0,0);font-weight:bold;text-anchor:middle;dominant-baseline:central">sequence_connection_0d</text>
<rect x="355" y="343" width="10" height="10" style="fill:rgb(255,255,255);stroke:rgb(0,0,0);stroke-width:1"/>
<line x1="357" y1="348" x2="363" y2="348" style="stroke:rgb(0,0,0);stroke-width:1"/>
<line x1="360" y1="345" x2="360" y2="351" style="stroke:rgb(0,0,0);stroke-width:1"/>

<rect x="206" y="389" width="85" height="22" style="fill:rgb(255,255,255);stroke:rgb(0,0,0);stroke-width:1;stroke-dasharray:4,1"/>
<text x="248.5" y="400" style="font-family:Arial;font-size:8pt;fill:rgb(0,0,0);font-weight:bold;text-anchor:middle;dominant-baseline:central">contact_list</text>
<line x1="207" y1="410" x2="210" y2="407" style="stroke:rgb(0,0,0);stroke-width:2"/>
<path d="M210 407 L212 409 L213 404 L208 405 L210 407 Z" style="fill:rgb(0,0,0)"/>
<rect x="286" y="395" width="10" height="10" style="fill:rgb(255,255,255);stroke:rgb(0,0,0);stroke-width:1"/>
<line x1="288" y1="400" x2="294" y2="400" style="stroke:rgb(0,0,0);stroke-width:1"/>
<line x1="291" y1="397" x2="291" y2="403" style="stroke:rgb(0,0,0);stroke-width:1"/>

<rect x="206" y="441" width="67" height="22" style="fill:rgb(255,255,255);stroke:rgb(0,0,0);stroke-width:1;stroke-dasharray:4,1"/>
<text x="239.5" y="452" style="font-family:Arial;font-size:8pt;fill:rgb(0,0,0);font-weight:bold;text-anchor:middle;dominant-baseline:central">appdata</text>
<rect x="268" y="447" width="10" height="10" style="fill:rgb(255,255,255);stroke:rgb(0,0,0);stroke-width:1"/>
<line x1="270" y1="452" x2="276" y2="452" style="stroke:rgb(0,0,0);stroke-width:1"/>
<line x1="273" y1="449" x2="273" y2="455" style="stroke:rgb(0,0,0);stroke-width:1"/>

<rect x="206" y="493" width="67" height="22" style="fill:rgb(255,255,255);stroke:rgb(0,0,0);stroke-width:1;stroke-dasharray:4,1"/>
<text x="239.5" y="504" style="font-family:Arial;font-size:8pt;fill:rgb(0,0,0);font-weight:bold;text-anchor:middle;dominant-baseline:central">femdata</text>
<line x1="207" y1="514" x2="210" y2="511" style="stroke:rgb(0,0,0);stroke-width:2"/>
<path d="M210 511 L212 513 L213 508 L208 509 L210 511 Z" style="fill:rgb(0,0,0)"/>
<rect x="268" y="499" width="10" height="10" style="fill:rgb(255,255,255);stroke:rgb(0,0,0);stroke-width:1"/>
<line x1="270" y1="504" x2="276" y2="504" style="stroke:rgb(0,0,0);stroke-width:1"/>
<line x1="273" y1="501" x2="273" y2="507" style="stroke:rgb(0,0,0);stroke-width:1"/>

<rect x="206" y="545" width="70" height="22" style="fill:rgb(255,255,255);stroke:rgb(0,0,0);stroke-width:1;stroke-dasharray:4,1"/>
<text x="241" y="556" style="font-family:Arial;font-size:8pt;fill:rgb(0,0,0);font-weight:bold;text-anchor:middle;dominant-baseline:central">stacking</text>
<rect x="271" y="551" width="10" height="10" style="fill:rgb(255,255,255);stroke:rgb(0,0,0);stroke-width:1"/>
<line x1="273" y1="556" x2="279" y2="556" style="stroke:rgb(0,0,0);stroke-width:1"/>
<line x1="276" y1="553" x2="276" y2="559" style="stroke:rgb(0,0,0);stroke-width:1"/>

<line x1="196" y1="36" x2="206" y2="36" style="stroke:rgb(0,0,0);stroke-width:1;stroke-linecap:round"/>
<line x1="196" y1="88" x2="206" y2="88" style="stroke:rgb(0,0,0);stroke-width:1;stroke-linecap:round"/>
<line x1="196" y1="140" x2="206" y2="140" style="stroke:rgb(0,0,0);stroke-width:1;stroke-linecap:round"/>
<line x1="196" y1="400" x2="206" y2="400" style="stroke:rgb(0,0,0);stroke-width:1;stroke-linecap:round"/>
<line x1="196" y1="452" x2="206" y2="452" style="stroke:rgb(0,0,0);stroke-width:1;stroke-linecap:round"/>
<line x1="196" y1="504" x2="206" y2="504" style="stroke:rgb(0,0,0);stroke-width:1;stroke-linecap:round"/>
<line x1="196" y1="556" x2="206" y2="556" style="stroke:rgb(0,0,0);stroke-width:1;stroke-linecap:round"/>
<line x1="196" y1="36" x2="196" y2="556" style="stroke:rgb(0,0,0);stroke-width:1;stroke-linecap:round"/>
<line x1="186" y1="296" x2="196" y2="296" style="stroke:rgb(0,0,0);stroke-width:1;stroke-linecap:round"/>
<path d="M152 286 L175 286 L181 292 L181 300 L175 306 L152 306 L146 300 L146 292 Z" style="fill:rgb(255,255,255);stroke:rgb(0,0,0);stroke-width:1"/>
<line x1="159" y1="292" x2="155" y2="292" style="stroke:rgb(0,0,0);stroke-width:1"/>
<line x1="159" y1="296" x2="151" y2="296" style="stroke:rgb(0,0,0);stroke-width:1"/>
<line x1="159" y1="300" x2="155" y2="300" style="stroke:rgb(0,0,0);stroke-width:1"/>
<line x1="155" y1="292" x2="155" y2="300" style="stroke:rgb(0,0,0);stroke-width:1"/>
<line x1="167" y1="292" x2="171" y2="292" style="stroke:rgb(0,0,0);stroke-width:1"/>
<line x1="167" y1="296" x2="175" y2="296" style="stroke:rgb(0,0,0);stroke-width:1"/>
<line x1="167" y1="300" x2="171" y2="300" style="stroke:rgb(0,0,0);stroke-width:1"/>
<line x1="171" y1="292" x2="171" y2="300" style="stroke:rgb(0,0,0);stroke-width:1"/>
<ellipse cx="163" cy="292" rx="2" ry="2" style="rgb(0,0,0)"/>
<ellipse cx="163" cy="296" rx="2" ry="2" style="rgb(0,0,0)"/>
<ellipse cx="163" cy="300" rx="2" ry="2" style="rgb(0,0,0)"/>
<rect x="176" y="291" width="10" height="10" style="fill:rgb(255,255,255);stroke:rgb(0,0,0);stroke-width:1"/>
<line x1="178" y1="296" x2="184" y2="296" style="stroke:rgb(0,0,0);stroke-width:1"/>

<line x1="126" y1="296" x2="146" y2="296" style="stroke:rgb(0,0,0);stroke-width:1;stroke-linecap:round"/>
<rect x="20" y="285" width="101" height="22" style="fill:rgb(255,255,255);stroke:rgb(0,0,0);stroke-width:1"/>
<text x="70.5" y="296" style="font-family:Arial;font-size:8pt;fill:rgb(0,0,0);font-weight:bold;text-anchor:middle;dominant-baseline:central">connection_1d</text>
<rect x="116" y="291" width="10" height="10" style="fill:rgb(255,255,255);stroke:rgb(0,0,0);stroke-width:1"/>
<line x1="118" y1="296" x2="124" y2="296" style="stroke:rgb(0,0,0);stroke-width:1"/>
</svg>
