<?xml version="1.0" standalone="no"?>
<!DOCTYPE svg PUBLIC "-//W3C//DTD SVG 1.1//EN" "http://www.w3.org/Graphics/SVG/1.1/DTD/svg11.dtd">
<svg width="769" height="686" version="1.1" xmlns="http://www.w3.org/2000/svg">
<rect x="157" y="25" width="47" height="22" style="fill:rgb(255,255,255);stroke:rgb(0,0,0);stroke-width:1;stroke-dasharray:4,1"/>
<text x="180.5" y="36" style="font-family:Arial;font-size:8pt;fill:rgb(0,0,0);font-weight:bold;text-anchor:middle;dominant-baseline:central">units</text>
<line x1="158" y1="46" x2="161" y2="43" style="stroke:rgb(0,0,0);stroke-width:2"/>
<path d="M161 43 L163 45 L164 40 L159 41 L161 43 Z" style="fill:rgb(0,0,0)"/>

<rect x="157" y="77" width="44" height="22" style="fill:rgb(255,255,255);stroke:rgb(0,0,0);stroke-width:1;stroke-dasharray:4,1"/>
<text x="179" y="88" style="font-family:Arial;font-size:8pt;fill:rgb(0,0,0);font-weight:bold;text-anchor:middle;dominant-baseline:central">date</text>
<line x1="159" y1="79" x2="167" y2="79" style="stroke:rgb(0,0,0);stroke-width:1"/>
<line x1="159" y1="81" x2="165" y2="81" style="stroke:rgb(0,0,0);stroke-width:1"/>
<line x1="159" y1="83" x2="165" y2="83" style="stroke:rgb(0,0,0);stroke-width:1"/>
<line x1="159" y1="85" x2="165" y2="85" style="stroke:rgb(0,0,0);stroke-width:1"/>

<rect x="157" y="129" width="59" height="22" style="fill:rgb(255,255,255);stroke:rgb(0,0,0);stroke-width:1"/>
<text x="186.5" y="140" style="font-family:Arial;font-size:8pt;fill:rgb(0,0,0);font-weight:bold;text-anchor:middle;dominant-baseline:central">version</text>
<line x1="159" y1="131" x2="167" y2="131" style="stroke:rgb(0,0,0);stroke-width:1"/>
<line x1="159" y1="133" x2="165" y2="133" style="stroke:rgb(0,0,0);stroke-width:1"/>
<line x1="159" y1="135" x2="165" y2="135" style="stroke:rgb(0,0,0);stroke-width:1"/>
<line x1="159" y1="137" x2="165" y2="137" style="stroke:rgb(0,0,0);stroke-width:1"/>

<path d="M318 184 L382 184 L388 190 L388 200 L382 206 L318 206 L312 200 L312 190 Z" style="fill:rgb(255,255,255);stroke:rgb(0,0,0);stroke-width:1;stroke-dasharray:4,1"/>
<path d="M315 181 L379 181 L385 187 L385 197 L379 203 L315 203 L309 197 L309 187 Z" style="fill:rgb(255,255,255);stroke:rgb(0,0,0);stroke-width:1;stroke-dasharray:4,1"/>
<text x="347" y="192" style="font-family:Arial;font-size:8pt;fill:rgb(0,0,0);font-weight:bold;text-anchor:middle;dominant-baseline:central">any  ##any</text>
<text x="375" y="213" style="font-family:Arial;font-size:7.2pt;fill:rgb(0,0,0);text-anchor:end;dominant-baseline:central">0..∞</text>

<line x1="289" y1="192" x2="309" y2="192" style="stroke:rgb(0,0,0);stroke-width:1;stroke-linecap:round"/>
<path d="M255 182 L278 182 L284 188 L284 196 L278 202 L255 202 L249 196 L249 188 Z" style="fill:rgb(255,255,255);stroke:rgb(0,0,0);stroke-width:1"/>
<line x1="252" y1="192" x2="281" y2="192" style="stroke:rgb(0,0,0);stroke-width:1"/>
<ellipse cx="261" cy="192" rx="2" ry="2" style="rgb(0,0,0)"/>
<ellipse cx="266" cy="192" rx="2" ry="2" style="rgb(0,0,0)"/>
<ellipse cx="271" cy="192" rx="2" ry="2" style="rgb(0,0,0)"/>
<rect x="279" y="187" width="10" height="10" style="fill:rgb(255,255,255);stroke:rgb(0,0,0);stroke-width:1"/>
<line x1="281" y1="192" x2="287" y2="192" style="stroke:rgb(0,0,0);stroke-width:1"/>

<line x1="229" y1="192" x2="249" y2="192" style="stroke:rgb(0,0,0);stroke-width:1;stroke-linecap:round"/>
<rect x="160" y="184" width="67" height="22" style="fill:rgb(255,255,255);stroke:rgb(0,0,0);stroke-width:1;stroke-dasharray:4,1"/>
<rect x="157" y="181" width="67" height="22" style="fill:rgb(255,255,255);stroke:rgb(0,0,0);stroke-width:1;stroke-dasharray:4,1"/>
<text x="190.5" y="192" style="font-family:Arial;font-size:8pt;fill:rgb(0,0,0);font-weight:bold;text-anchor:middle;dominant-baseline:central">appdata</text>
<text x="219" y="213" style="font-family:Arial;font-size:7.2pt;fill:rgb(0,0,0);text-anchor:end;dominant-baseline:central">0..∞</text>
<rect x="219" y="187" width="10" height="10" style="fill:rgb(255,255,255);stroke:rgb(0,0,0);stroke-width:1"/>
<line x1="221" y1="192" x2="227" y2="192" style="stroke:rgb(0,0,0);stroke-width:1"/>

<rect x="160" y="236" width="67" height="22" style="fill:rgb(255,255,255);stroke:rgb(0,0,0);stroke-width:1;stroke-dasharray:4,1"/>
<rect x="157" y="233" width="67" height="22" style="fill:rgb(255,255,255);stroke:rgb(0,0,0);stroke-width:1;stroke-dasharray:4,1"/>
<text x="190.5" y="244" style="font-family:Arial;font-size:8pt;fill:rgb(0,0,0);font-weight:bold;text-anchor:middle;dominant-baseline:central">femdata</text>
<text x="219" y="265" style="font-family:Arial;font-size:7.2pt;fill:rgb(0,0,0);text-anchor:end;dominant-baseline:central">0..∞</text>
<line x1="158" y1="254" x2="161" y2="251" style="stroke:rgb(0,0,0);stroke-width:2"/>
<path d="M161 251 L163 253 L164 248 L159 249 L161 251 Z" style="fill:rgb(0,0,0)"/>
<rect x="219" y="239" width="10" height="10" style="fill:rgb(255,255,255);stroke:rgb(0,0,0);stroke-width:1"/>
<line x1="221" y1="244" x2="227" y2="244" style="stroke:rgb(0,0,0);stroke-width:1"/>
<line x1="224" y1="241" x2="224" y2="247" style="stroke:rgb(0,0,0);stroke-width:1"/>

<rect x="540" y="285" width="42" height="22" style="fill:rgb(255,255,255);stroke:rgb(0,0,0);stroke-width:1"/>
<text x="561" y="296" style="font-family:Arial;font-size:8pt;fill:rgb(0,0,0);font-weight:bold;text-anchor:middle;dominant-baseline:central">part</text>

<rect x="679" y="340" width="42" height="22" style="fill:rgb(255,255,255);stroke:rgb(0,0,0);stroke-width:1"/>
<rect x="676" y="337" width="42" height="22" style="fill:rgb(255,255,255);stroke:rgb(0,0,0);stroke-width:1"/>
<text x="697" y="348" style="font-family:Arial;font-size:8pt;fill:rgb(0,0,0);font-weight:bold;text-anchor:middle;dominant-baseline:central">part</text>
<text x="708" y="369" style="font-family:Arial;font-size:7.2pt;fill:rgb(0,0,0);text-anchor:end;dominant-baseline:central">2..∞</text>

<line x1="656" y1="348" x2="676" y2="348" style="stroke:rgb(0,0,0);stroke-width:1;stroke-linecap:round"/>
<path d="M622 338 L645 338 L651 344 L651 352 L645 358 L622 358 L616 352 L616 344 Z" style="fill:rgb(255,255,255);stroke:rgb(0,0,0);stroke-width:1"/>
<line x1="619" y1="348" x2="648" y2="348" style="stroke:rgb(0,0,0);stroke-width:1"/>
<ellipse cx="628" cy="348" rx="2" ry="2" style="rgb(0,0,0)"/>
<ellipse cx="633" cy="348" rx="2" ry="2" style="rgb(0,0,0)"/>
<ellipse cx="638" cy="348" rx="2" ry="2" style="rgb(0,0,0)"/>
<rect x="646" y="343" width="10" height="10" style="fill:rgb(255,255,255);stroke:rgb(0,0,0);stroke-width:1"/>
<line x1="648" y1="348" x2="654" y2="348" style="stroke:rgb(0,0,0);stroke-width:1"/>

<line x1="596" y1="348" x2="616" y2="348" style="stroke:rgb(0,0,0);stroke-width:1;stroke-linecap:round"/>
<rect x="540" y="337" width="51" height="22" style="fill:rgb(255,255,255);stroke:rgb(0,0,0);stroke-width:1"/>
<text x="565.5" y="348" style="font-family:Arial;font-size:8pt;fill:rgb(0,0,0);font-weight:bold;text-anchor:middle;dominant-baseline:central">assy</text>
<rect x="586" y="343" width="10" height="10" style="fill:rgb(255,255,255);stroke:rgb(0,0,0);stroke-width:1"/>
<line x1="588" y1="348" x2="594" y2="348" style="stroke:rgb(0,0,0);stroke-width:1"/>

<line x1="530" y1="296" x2="540" y2="296" style="stroke:rgb(0,0,0);stroke-width:1;stroke-linecap:round"/>
<line x1="530" y1="348" x2="540" y2="348" style="stroke:rgb(0,0,0);stroke-width:1;stroke-linecap:round"/>
<line x1="530" y1="296" x2="530" y2="348" style="stroke:rgb(0,0,0);stroke-width:1;stroke-linecap:round"/>
<line x1="520" y1="322" x2="530" y2="322" style="stroke:rgb(0,0,0);stroke-width:1;stroke-linecap:round"/>
<path d="M489 315 L512 315 L518 321 L518 329 L512 335 L489 335 L483 329 L483 321 Z" style="fill:rgb(255,255,255);stroke:rgb(0,0,0);stroke-width:1;stroke-dasharray:4,1"/>
<path d="M486 312 L509 312 L515 318 L515 326 L509 332 L486 332 L480 326 L480 318 Z" style="fill:rgb(255,255,255);stroke:rgb(0,0,0);stroke-width:1;stroke-dasharray:4,1"/>
<line x1="485" y1="322" x2="489" y2="322" style="stroke:rgb(0,0,0);stroke-width:1"/>
<line x1="489" y1="322" x2="493" y2="318" style="stroke:rgb(0,0,0);stroke-width:1"/>
<line x1="501" y1="318" x2="505" y2="318" style="stroke:rgb(0,0,0);stroke-width:1"/>
<line x1="501" y1="322" x2="509" y2="322" style="stroke:rgb(0,0,0);stroke-width:1"/>
<line x1="501" y1="326" x2="505" y2="326" style="stroke:rgb(0,0,0);stroke-width:1"/>
<line x1="505" y1="318" x2="505" y2="326" style="stroke:rgb(0,0,0);stroke-width:1"/>
<ellipse cx="497" cy="318" rx="2" ry="2" style="rgb(0,0,0)"/>
<ellipse cx="497" cy="322" rx="2" ry="2" style="rgb(0,0,0)"/>
<ellipse cx="497" cy="326" rx="2" ry="2" style="rgb(0,0,0)"/>
<text x="510" y="342" style="font-family:Arial;font-size:7.2pt;fill:rgb(0,0,0);text-anchor:end;dominant-baseline:central">0..∞</text>
<rect x="510" y="317" width="10" height="10" style="fill:rgb(255,255,255);stroke:rgb(0,0,0);stroke-width:1"/>
<line x1="512" y1="322" x2="518" y2="322" style="stroke:rgb(0,0,0);stroke-width:1"/>

<line x1="460" y1="322" x2="480" y2="322" style="stroke:rgb(0,0,0);stroke-width:1;stroke-linecap:round"/>
<rect x="360" y="311" width="95" height="22" style="fill:rgb(255,255,255);stroke:rgb(0,0,0);stroke-width:1"/>
<text x="407.5" y="322" style="font-family:Arial;font-size:8pt;fill:rgb(0,0,0);font-weight:bold;text-anchor:middle;dominant-baseline:central">connected_to</text>
<line x1="361" y1="332" x2="364" y2="329" style="stroke:rgb(0,0,0);stroke-width:2"/>
<path d="M364 329 L366 331 L367 326 L362 327 L364 329 Z" style="fill:rgb(0,0,0)"/>
<rect x="450" y="317" width="10" height="10" style="fill:rgb(255,255,255);stroke:rgb(0,0,0);stroke-width:1"/>
<line x1="452" y1="322" x2="458" y2="322" style="stroke:rgb(0,0,0);stroke-width:1"/>

<rect x="548" y="389" width="101" height="22" style="fill:rgb(255,255,255);stroke:rgb(0,0,0);stroke-width:1"/>
<text x="598.5" y="400" style="font-family:Arial;font-size:8pt;fill:rgb(0,0,0);font-weight:bold;text-anchor:middle;dominant-baseline:central">connection_0d</text>
<line x1="549" y1="410" x2="552" y2="407" style="stroke:rgb(0,0,0);stroke-width:2"/>
<path d="M552 407 L554 409 L555 404 L550 405 L552 407 Z" style="fill:rgb(0,0,0)"/>
<rect x="644" y="395" width="10" height="10" style="fill:rgb(255,255,255);stroke:rgb(0,0,0);stroke-width:1"/>
<line x1="646" y1="400" x2="652" y2="400" style="stroke:rgb(0,0,0);stroke-width:1"/>
<line x1="649" y1="397" x2="649" y2="403" style="stroke:rgb(0,0,0);stroke-width:1"/>

<rect x="548" y="441" width="101" height="22" style="fill:rgb(255,255,255);stroke:rgb(0,0,0);stroke-width:1"/>
<text x="598.5" y="452" style="font-family:Arial;font-size:8pt;fill:rgb(0,0,0);font-weight:bold;text-anchor:middle;dominant-baseline:central">connection_1d</text>
<line x1="549" y1="462" x2="552" y2="459" style="stroke:rgb(0,0,0);stroke-width:2"/>
<path d="M552 459 L554 461 L555 456 L550 457 L552 459 Z" style="fill:rgb(0,0,0)"/>
<rect x="644" y="447" width="10" height="10" style="fill:rgb(255,255,255);stroke:rgb(0,0,0);stroke-width:1"/>
<line x1="646" y1="452" x2="652" y2="452" style="stroke:rgb(0,0,0);stroke-width:1"/>
<line x1="649" y1="449" x2="649" y2="455" style="stroke:rgb(0,0,0);stroke-width:1"/>

<rect x="548" y="493" width="101" height="22" style="fill:rgb(255,255,255);stroke:rgb(0,0,0);stroke-width:1"/>
<text x="598.5" y="504" style="font-family:Arial;font-size:8pt;fill:rgb(0,0,0);font-weight:bold;text-anchor:middle;dominant-baseline:central">connection_2d</text>
<line x1="549" y1="514" x2="552" y2="511" style="stroke:rgb(0,0,0);stroke-width:2"/>
<path d="M552 511 L554 513 L555 508 L550 509 L552 511 Z" style="fill:rgb(0,0,0)"/>
<rect x="644" y="499" width="10" height="10" style="fill:rgb(255,255,255);stroke:rgb(0,0,0);stroke-width:1"/>
<line x1="646" y1="504" x2="652" y2="504" style="stroke:rgb(0,0,0);stroke-width:1"/>
<line x1="649" y1="501" x2="649" y2="507" style="stroke:rgb(0,0,0);stroke-width:1"/>

<line x1="538" y1="400" x2="548" y2="400" style="stroke:rgb(0,0,0);stroke-width:1;stroke-linecap:round"/>
<line x1="538" y1="452" x2="548" y2="452" style="stroke:rgb(0,0,0);stroke-width:1;stroke-linecap:round"/>
<line x1="538" y1="504" x2="548" y2="504" style="stroke:rgb(0,0,0);stroke-width:1;stroke-linecap:round"/>
<line x1="538" y1="400" x2="538" y2="504" style="stroke:rgb(0,0,0);stroke-width:1;stroke-linecap:round"/>
<line x1="528" y1="452" x2="538" y2="452" style="stroke:rgb(0,0,0);stroke-width:1;stroke-linecap:round"/>
<path d="M497 445 L520 445 L526 451 L526 459 L520 465 L497 465 L491 459 L491 451 Z" style="fill:rgb(255,255,255);stroke:rgb(0,0,0);stroke-width:1"/>
<path d="M494 442 L517 442 L523 448 L523 456 L517 462 L494 462 L488 456 L488 448 Z" style="fill:rgb(255,255,255);stroke:rgb(0,0,0);stroke-width:1"/>
<line x1="493" y1="452" x2="497" y2="452" style="stroke:rgb(0,0,0);stroke-width:1"/>
<line x1="497" y1="452" x2="501" y2="448" style="stroke:rgb(0,0,0);stroke-width:1"/>
<line x1="509" y1="448" x2="513" y2="448" style="stroke:rgb(0,0,0);stroke-width:1"/>
<line x1="509" y1="452" x2="517" y2="452" style="stroke:rgb(0,0,0);stroke-width:1"/>
<line x1="509" y1="456" x2="513" y2="456" style="stroke:rgb(0,0,0);stroke-width:1"/>
<line x1="513" y1="448" x2="513" y2="456" style="stroke:rgb(0,0,0);stroke-width:1"/>
<ellipse cx="505" cy="448" rx="2" ry="2" style="rgb(0,0,0)"/>
<ellipse cx="505" cy="452" rx="2" ry="2" style="rgb(0,0,0)"/>
<ellipse cx="505" cy="456" rx="2" ry="2" style="rgb(0,0,0)"/>
<text x="518" y="472" style="font-family:Arial;font-size:7.2pt;fill:rgb(0,0,0);text-anchor:end;dominant-baseline:central">1..∞</text>
<rect x="518" y="447" width="10" height="10" style="fill:rgb(255,255,255);stroke:rgb(0,0,0);stroke-width:1"/>
<line x1="520" y1="452" x2="526" y2="452" style="stroke:rgb(0,0,0);stroke-width:1"/>

<line x1="468" y1="452" x2="488" y2="452" style="stroke:rgb(0,0,0);stroke-width:1;stroke-linecap:round"/>
<rect x="360" y="441" width="103" height="22" style="fill:rgb(255,255,255);stroke:rgb(0,0,0);stroke-width:1"/>
<text x="411.5" y="452" style="font-family:Arial;font-size:8pt;fill:rgb(0,0,0);font-weight:bold;text-anchor:middle;dominant-baseline:central">connection_list</text>
<line x1="361" y1="462" x2="364" y2="459" style="stroke:rgb(0,0,0);stroke-width:2"/>
<path d="M364 459 L366 461 L367 456 L362 457 L364 459 Z" style="fill:rgb(0,0,0)"/>
<rect x="458" y="447" width="10" height="10" style="fill:rgb(255,255,255);stroke:rgb(0,0,0);stroke-width:1"/>
<line x1="460" y1="452" x2="466" y2="452" style="stroke:rgb(0,0,0);stroke-width:1"/>

<rect x="682" y="548" width="58" height="22" style="fill:rgb(255,255,255);stroke:rgb(0,0,0);stroke-width:1"/>
<rect x="679" y="545" width="58" height="22" style="fill:rgb(255,255,255);stroke:rgb(0,0,0);stroke-width:1"/>
<text x="708" y="556" style="font-family:Arial;font-size:8pt;fill:rgb(0,0,0);font-weight:bold;text-anchor:middle;dominant-baseline:central">partner</text>
<text x="727" y="577" style="font-family:Arial;font-size:7.2pt;fill:rgb(0,0,0);text-anchor:end;dominant-baseline:central">2..2</text>
<line x1="680" y1="566" x2="683" y2="563" style="stroke:rgb(0,0,0);stroke-width:2"/>
<path d="M683 563 L685 565 L686 560 L681 561 L683 563 Z" style="fill:rgb(0,0,0)"/>

<rect x="679" y="597" width="80" height="22" style="fill:rgb(255,255,255);stroke:rgb(0,0,0);stroke-width:1"/>
<text x="719" y="608" style="font-family:Arial;font-size:8pt;fill:rgb(0,0,0);font-weight:bold;text-anchor:middle;dominant-baseline:central">coefficients</text>
<line x1="680" y1="618" x2="683" y2="615" style="stroke:rgb(0,0,0);stroke-width:2"/>
<path d="M683 615 L685 617 L686 612 L681 613 L683 615 Z" style="fill:rgb(0,0,0)"/>

<line x1="669" y1="556" x2="679" y2="556" style="stroke:rgb(0,0,0);stroke-width:1;stroke-linecap:round"/>
<line x1="669" y1="608" x2="679" y2="608" style="stroke:rgb(0,0,0);stroke-width:1;stroke-linecap:round"/>
<line x1="669" y1="556" x2="669" y2="608" style="stroke:rgb(0,0,0);stroke-width:1;stroke-linecap:round"/>
<line x1="659" y1="582" x2="669" y2="582" style="stroke:rgb(0,0,0);stroke-width:1;stroke-linecap:round"/>
<path d="M625 572 L648 572 L654 578 L654 586 L648 592 L625 592 L619 586 L619 578 Z" style="fill:rgb(255,255,255);stroke:rgb(0,0,0);stroke-width:1"/>
<line x1="632" y1="578" x2="628" y2="578" style="stroke:rgb(0,0,0);stroke-width:1"/>
<line x1="632" y1="582" x2="624" y2="582" style="stroke:rgb(0,0,0);stroke-width:1"/>
<line x1="632" y1="586" x2="628" y2="586" style="stroke:rgb(0,0,0);stroke-width:1"/>
<line x1="628" y1="578" x2="628" y2="586" style="stroke:rgb(0,0,0);stroke-width:1"/>
<line x1="640" y1="578" x2="644" y2="578" style="stroke:rgb(0,0,0);stroke-width:1"/>
<line x1="640" y1="582" x2="648" y2="582" style="stroke:rgb(0,0,0);stroke-width:1"/>
<line x1="640" y1="586" x2="644" y2="586" style="stroke:rgb(0,0,0);stroke-width:1"/>
<line x1="644" y1="578" x2="644" y2="586" style="stroke:rgb(0,0,0);stroke-width:1"/>
<ellipse cx="636" cy="578" rx="2" ry="2" style="rgb(0,0,0)"/>
<ellipse cx="636" cy="582" rx="2" ry="2" style="rgb(0,0,0)"/>
<ellipse cx="636" cy="586" rx="2" ry="2" style="rgb(0,0,0)"/>
<rect x="649" y="577" width="10" height="10" style="fill:rgb(255,255,255);stroke:rgb(0,0,0);stroke-width:1"/>
<line x1="651" y1="582" x2="657" y2="582" style="stroke:rgb(0,0,0);stroke-width:1"/>

<line x1="599" y1="582" x2="619" y2="582" style="stroke:rgb(0,0,0);stroke-width:1;stroke-linecap:round"/>
<rect x="533" y="574" width="64" height="22" style="fill:rgb(255,255,255);stroke:rgb(0,0,0);stroke-width:1"/>
<rect x="530" y="571" width="64" height="22" style="fill:rgb(255,255,255);stroke:rgb(0,0,0);stroke-width:1"/>
<text x="562" y="582" style="font-family:Arial;font-size:8pt;fill:rgb(0,0,0);font-weight:bold;text-anchor:middle;dominant-baseline:central">contact</text>
<text x="589" y="603" style="font-family:Arial;font-size:7.2pt;fill:rgb(0,0,0);text-anchor:end;dominant-baseline:central">1..∞</text>
<rect x="589" y="577" width="10" height="10" style="fill:rgb(255,255,255);stroke:rgb(0,0,0);stroke-width:1"/>
<line x1="591" y1="582" x2="597" y2="582" style="stroke:rgb(0,0,0);stroke-width:1"/>

<line x1="510" y1="582" x2="530" y2="582" style="stroke:rgb(0,0,0);stroke-width:1;stroke-linecap:round"/>
<path d="M476 572 L499 572 L505 578 L505 586 L499 592 L476 592 L470 586 L470 578 Z" style="fill:rgb(255,255,255);stroke:rgb(0,0,0);stroke-width:1"/>
<line x1="483" y1="578" x2="479" y2="578" style="stroke:rgb(0,0,0);stroke-width:1"/>
<line x1="483" y1="582" x2="475" y2="582" style="stroke:rgb(0,0,0);stroke-width:1"/>
<line x1="483" y1="586" x2="479" y2="586" style="stroke:rgb(0,0,0);stroke-width:1"/>
<line x1="479" y1="578" x2="479" y2="586" style="stroke:rgb(0,0,0);stroke-width:1"/>
<line x1="491" y1="578" x2="495" y2="578" style="stroke:rgb(0,0,0);stroke-width:1"/>
<line x1="491" y1="582" x2="499" y2="582" style="stroke:rgb(0,0,0);stroke-width:1"/>
<line x1="491" y1="586" x2="495" y2="586" style="stroke:rgb(0,0,0);stroke-width:1"/>
<line x1="495" y1="578" x2="495" y2="586" style="stroke:rgb(0,0,0);stroke-width:1"/>
<ellipse cx="487" cy="578" rx="2" ry="2" style="rgb(0,0,0)"/>
<ellipse cx="487" cy="582" rx="2" ry="2" style="rgb(0,0,0)"/>
<ellipse cx="487" cy="586" rx="2" ry="2" style="rgb(0,0,0)"/>
<rect x="500" y="577" width="10" height="10" style="fill:rgb(255,255,255);stroke:rgb(0,0,0);stroke-width:1"/>
<line x1="502" y1="582" x2="508" y2="582" style="stroke:rgb(0,0,0);stroke-width:1"/>

<line x1="450" y1="582" x2="470" y2="582" style="stroke:rgb(0,0,0);stroke-width:1;stroke-linecap:round"/>
<rect x="360" y="571" width="85" height="22" style="fill:rgb(255,255,255);stroke:rgb(0,0,0);stroke-width:1;stroke-dasharray:4,1"/>
<text x="402.5" y="582" style="font-family:Arial;font-size:8pt;fill:rgb(0,0,0);font-weight:bold;text-anchor:middle;dominant-baseline:central">contact_list</text>
<line x1="361" y1="592" x2="364" y2="589" style="stroke:rgb(0,0,0);stroke-width:2"/>
<path d="M364 589 L366 591 L367 586 L362 587 L364 589 Z" style="fill:rgb(0,0,0)"/>
<rect x="440" y="577" width="10" height="10" style="fill:rgb(255,255,255);stroke:rgb(0,0,0);stroke-width:1"/>
<line x1="442" y1="582" x2="448" y2="582" style="stroke:rgb(0,0,0);stroke-width:1"/>

<path d="M521 652 L585 652 L591 658 L591 668 L585 674 L521 674 L515 668 L515 658 Z" style="fill:rgb(255,255,255);stroke:rgb(0,0,0);stroke-width:1;stroke-dasharray:4,1"/>
<path d="M518 649 L582 649 L588 655 L588 665 L582 671 L518 671 L512 665 L512 655 Z" style="fill:rgb(255,255,255);stroke:rgb(0,0,0);stroke-width:1;stroke-dasharray:4,1"/>
<text x="550" y="660" style="font-family:Arial;font-size:8pt;fill:rgb(0,0,0);font-weight:bold;text-anchor:middle;dominant-baseline:central">any  ##any</text>
<text x="578" y="681" style="font-family:Arial;font-size:7.2pt;fill:rgb(0,0,0);text-anchor:end;dominant-baseline:central">0..∞</text>

<line x1="492" y1="660" x2="512" y2="660" style="stroke:rgb(0,0,0);stroke-width:1;stroke-linecap:round"/>
<path d="M458 650 L481 650 L487 656 L487 664 L481 670 L458 670 L452 664 L452 656 Z" style="fill:rgb(255,255,255);stroke:rgb(0,0,0);stroke-width:1"/>
<line x1="455" y1="660" x2="484" y2="660" style="stroke:rgb(0,0,0);stroke-width:1"/>
<ellipse cx="464" cy="660" rx="2" ry="2" style="rgb(0,0,0)"/>
<ellipse cx="469" cy="660" rx="2" ry="2" style="rgb(0,0,0)"/>
<ellipse cx="474" cy="660" rx="2" ry="2" style="rgb(0,0,0)"/>
<rect x="482" y="655" width="10" height="10" style="fill:rgb(255,255,255);stroke:rgb(0,0,0);stroke-width:1"/>
<line x1="484" y1="660" x2="490" y2="660" style="stroke:rgb(0,0,0);stroke-width:1"/>

<line x1="432" y1="660" x2="452" y2="660" style="stroke:rgb(0,0,0);stroke-width:1;stroke-linecap:round"/>
<rect x="360" y="649" width="67" height="22" style="fill:rgb(255,255,255);stroke:rgb(0,0,0);stroke-width:1;stroke-dasharray:4,1"/>
<text x="393.5" y="660" style="font-family:Arial;font-size:8pt;fill:rgb(0,0,0);font-weight:bold;text-anchor:middle;dominant-baseline:central">appdata</text>
<rect x="422" y="655" width="10" height="10" style="fill:rgb(255,255,255);stroke:rgb(0,0,0);stroke-width:1"/>
<line x1="424" y1="660" x2="430" y2="660" style="stroke:rgb(0,0,0);stroke-width:1"/>

<line x1="350" y1="322" x2="360" y2="322" style="stroke:rgb(0,0,0);stroke-width:1;stroke-linecap:round"/>
<line x1="350" y1="452" x2="360" y2="452" style="stroke:rgb(0,0,0);stroke-width:1;stroke-linecap:round"/>
<line x1="350" y1="582" x2="360" y2="582" style="stroke:rgb(0,0,0);stroke-width:1;stroke-linecap:round"/>
<line x1="350" y1="660" x2="360" y2="660" style="stroke:rgb(0,0,0);stroke-width:1;stroke-linecap:round"/>
<line x1="350" y1="322" x2="350" y2="660" style="stroke:rgb(0,0,0);stroke-width:1;stroke-linecap:round"/>
<line x1="340" y1="478" x2="350" y2="478" style="stroke:rgb(0,0,0);stroke-width:1;stroke-linecap:round"/>
<path d="M306 468 L329 468 L335 474 L335 482 L329 488 L306 488 L300 482 L300 474 Z" style="fill:rgb(255,255,255);stroke:rgb(0,0,0);stroke-width:1"/>
<line x1="313" y1="474" x2="309" y2="474" style="stroke:rgb(0,0,0);stroke-width:1"/>
<line x1="313" y1="478" x2="305" y2="478" style="stroke:rgb(0,0,0);stroke-width:1"/>
<line x1="313" y1="482" x2="309" y2="482" style="stroke:rgb(0,0,0);stroke-width:1"/>
<line x1="309" y1="474" x2="309" y2="482" style="stroke:rgb(0,0,0);stroke-width:1"/>
<line x1="321" y1="474" x2="325" y2="474" style="stroke:rgb(0,0,0);stroke-width:1"/>
<line x1="321" y1="478" x2="329" y2="478" style="stroke:rgb(0,0,0);stroke-width:1"/>
<line x1="321" y1="482" x2="325" y2="482" style="stroke:rgb(0,0,0);stroke-width:1"/>
<line x1="325" y1="474" x2="325" y2="482" style="stroke:rgb(0,0,0);stroke-width:1"/>
<ellipse cx="317" cy="474" rx="2" ry="2" style="rgb(0,0,0)"/>
<ellipse cx="317" cy="478" rx="2" ry="2" style="rgb(0,0,0)"/>
<ellipse cx="317" cy="482" rx="2" ry="2" style="rgb(0,0,0)"/>
<rect x="330" y="473" width="10" height="10" style="fill:rgb(255,255,255);stroke:rgb(0,0,0);stroke-width:1"/>
<line x1="332" y1="478" x2="338" y2="478" style="stroke:rgb(0,0,0);stroke-width:1"/>

<line x1="280" y1="478" x2="300" y2="478" style="stroke:rgb(0,0,0);stroke-width:1;stroke-linecap:round"/>
<rect x="160" y="470" width="118" height="22" style="fill:rgb(255,255,255);stroke:rgb(0,0,0);stroke-width:1;stroke-dasharray:4,1"/>
<rect x="157" y="467" width="118" height="22" style="fill:rgb(255,255,255);stroke:rgb(0,0,0);stroke-width:1;stroke-dasharray:4,1"/>
<text x="216" y="478" style="font-family:Arial;font-size:8pt;fill:rgb(0,0,0);font-weight:bold;text-anchor:middle;dominant-baseline:central">connection_group</text>
<text x="270" y="499" style="font-family:Arial;font-size:7.2pt;fill:rgb(0,0,0);text-anchor:end;dominant-baseline:central">0..∞</text>
<line x1="158" y1="488" x2="161" y2="485" style="stroke:rgb(0,0,0);stroke-width:2"/>
<path d="M161 485 L163 487 L164 482 L159 483 L161 485 Z" style="fill:rgb(0,0,0)"/>
<rect x="270" y="473" width="10" height="10" style="fill:rgb(255,255,255);stroke:rgb(0,0,0);stroke-width:1"/>
<line x1="272" y1="478" x2="278" y2="478" style="stroke:rgb(0,0,0);stroke-width:1"/>

<line x1="147" y1="36" x2="157" y2="36" style="stroke:rgb(0,0,0);stroke-width:1;stroke-linecap:round"/>
<line x1="147" y1="88" x2="157" y2="88" style="stroke:rgb(0,0,0);stroke-width:1;stroke-linecap:round"/>
<line x1="147" y1="140" x2="157" y2="140" style="stroke:rgb(0,0,0);stroke-width:1;stroke-linecap:round"/>
<line x1="147" y1="192" x2="157" y2="192" style="stroke:rgb(0,0,0);stroke-width:1;stroke-linecap:round"/>
<line x1="147" y1="244" x2="157" y2="244" style="stroke:rgb(0,0,0);stroke-width:1;stroke-linecap:round"/>
<line x1="147" y1="478" x2="157" y2="478" style="stroke:rgb(0,0,0);stroke-width:1;stroke-linecap:round"/>
<line x1="147" y1="36" x2="147" y2="478" style="stroke:rgb(0,0,0);stroke-width:1;stroke-linecap:round"/>
<line x1="137" y1="348" x2="147" y2="348" style="stroke:rgb(0,0,0);stroke-width:1;stroke-linecap:round"/>
<path d="M103 338 L126 338 L132 344 L132 352 L126 358 L103 358 L97 352 L97 344 Z" style="fill:rgb(255,255,255);stroke:rgb(0,0,0);stroke-width:1"/>
<line x1="110" y1="344" x2="106" y2="344" style="stroke:rgb(0,0,0);stroke-width:1"/>
<line x1="110" y1="348" x2="102" y2="348" style="stroke:rgb(0,0,0);stroke-width:1"/>
<line x1="110" y1="352" x2="106" y2="352" style="stroke:rgb(0,0,0);stroke-width:1"/>
<line x1="106" y1="344" x2="106" y2="352" style="stroke:rgb(0,0,0);stroke-width:1"/>
<line x1="118" y1="344" x2="122" y2="344" style="stroke:rgb(0,0,0);stroke-width:1"/>
<line x1="118" y1="348" x2="126" y2="348" style="stroke:rgb(0,0,0);stroke-width:1"/>
<line x1="118" y1="352" x2="122" y2="352" style="stroke:rgb(0,0,0);stroke-width:1"/>
<line x1="122" y1="344" x2="122" y2="352" style="stroke:rgb(0,0,0);stroke-width:1"/>
<ellipse cx="114" cy="344" rx="2" ry="2" style="rgb(0,0,0)"/>
<ellipse cx="114" cy="348" rx="2" ry="2" style="rgb(0,0,0)"/>
<ellipse cx="114" cy="352" rx="2" ry="2" style="rgb(0,0,0)"/>
<rect x="127" y="343" width="10" height="10" style="fill:rgb(255,255,255);stroke:rgb(0,0,0);stroke-width:1"/>
<line x1="129" y1="348" x2="135" y2="348" style="stroke:rgb(0,0,0);stroke-width:1"/>

<line x1="77" y1="348" x2="97" y2="348" style="stroke:rgb(0,0,0);stroke-width:1;stroke-linecap:round"/>
<rect x="20" y="337" width="52" height="22" style="fill:rgb(255,255,255);stroke:rgb(0,0,0);stroke-width:1"/>
<text x="46" y="348" style="font-family:Arial;font-size:8pt;fill:rgb(0,0,0);font-weight:bold;text-anchor:middle;dominant-baseline:central">xmcf</text>
<rect x="67" y="343" width="10" height="10" style="fill:rgb(255,255,255);stroke:rgb(0,0,0);stroke-width:1"/>
<line x1="69" y1="348" x2="75" y2="348" style="stroke:rgb(0,0,0);stroke-width:1"/>
</svg>
