<?xml version="1.0" standalone="no"?>
<!DOCTYPE svg PUBLIC "-//W3C//DTD SVG 1.1//EN" "http://www.w3.org/Graphics/SVG/1.1/DTD/svg11.dtd">
<svg width="566" height="270" version="1.1" xmlns="http://www.w3.org/2000/svg">
<rect x="237" y="25" width="106" height="22" style="fill:rgb(255,255,255);stroke:rgb(0,0,0);stroke-width:1;stroke-dasharray:4,1"/>
<text x="290" y="36" style="font-family:Arial;font-size:8pt;fill:rgb(0,0,0);font-weight:bold;text-anchor:middle;dominant-baseline:central">normal_direction</text>
<line x1="238" y1="46" x2="241" y2="43" style="stroke:rgb(0,0,0);stroke-width:2"/>
<path d="M241 43 L243 45 L244 40 L239 41 L241 43 Z" style="fill:rgb(0,0,0)"/>

<rect x="237" y="77" width="154" height="22" style="fill:rgb(255,255,255);stroke:rgb(0,0,0);stroke-width:1"/>
<text x="314" y="88" style="font-family:Arial;font-size:8pt;fill:rgb(0,0,0);font-weight:bold;text-anchor:middle;dominant-baseline:central">threaded_connection_type</text>
<line x1="239" y1="79" x2="247" y2="79" style="stroke:rgb(0,0,0);stroke-width:1"/>
<line x1="239" y1="81" x2="245" y2="81" style="stroke:rgb(0,0,0);stroke-width:1"/>
<line x1="239" y1="83" x2="245" y2="83" style="stroke:rgb(0,0,0);stroke-width:1"/>
<line x1="239" y1="85" x2="245" y2="85" style="stroke:rgb(0,0,0);stroke-width:1"/>
<line x1="238" y1="98" x2="241" y2="95" style="stroke:rgb(0,0,0);stroke-width:2"/>
<path d="M241 95 L243 97 L244 92 L239 93 L241 95 Z" style="fill:rgb(0,0,0)"/>

<rect x="498" y="129" width="58" height="22" style="fill:rgb(255,255,255);stroke:rgb(0,0,0);stroke-width:1;stroke-dasharray:4,1"/>
<text x="527" y="140" style="font-family:Arial;font-size:8pt;fill:rgb(0,0,0);font-weight:bold;text-anchor:middle;dominant-baseline:central">washer</text>
<line x1="499" y1="150" x2="502" y2="147" style="stroke:rgb(0,0,0);stroke-width:2"/>
<path d="M502 147 L504 149 L505 144 L500 145 L502 147 Z" style="fill:rgb(0,0,0)"/>

<line x1="478" y1="140" x2="498" y2="140" style="stroke:rgb(0,0,0);stroke-width:1;stroke-linecap:round"/>
<path d="M444 130 L467 130 L473 136 L473 144 L467 150 L444 150 L438 144 L438 136 Z" style="fill:rgb(255,255,255);stroke:rgb(0,0,0);stroke-width:1"/>
<line x1="451" y1="136" x2="447" y2="136" style="stroke:rgb(0,0,0);stroke-width:1"/>
<line x1="451" y1="140" x2="443" y2="140" style="stroke:rgb(0,0,0);stroke-width:1"/>
<line x1="451" y1="144" x2="447" y2="144" style="stroke:rgb(0,0,0);stroke-width:1"/>
<line x1="447" y1="136" x2="447" y2="144" style="stroke:rgb(0,0,0);stroke-width:1"/>
<line x1="459" y1="136" x2="463" y2="136" style="stroke:rgb(0,0,0);stroke-width:1"/>
<line x1="459" y1="140" x2="467" y2="140" style="stroke:rgb(0,0,0);stroke-width:1"/>
<line x1="459" y1="144" x2="463" y2="144" style="stroke:rgb(0,0,0);stroke-width:1"/>
<line x1="463" y1="136" x2="463" y2="144" style="stroke:rgb(0,0,0);stroke-width:1"/>
<ellipse cx="455" cy="136" rx="2" ry="2" style="rgb(0,0,0)"/>
<ellipse cx="455" cy="140" rx="2" ry="2" style="rgb(0,0,0)"/>
<ellipse cx="455" cy="144" rx="2" ry="2" style="rgb(0,0,0)"/>
<rect x="468" y="135" width="10" height="10" style="fill:rgb(255,255,255);stroke:rgb(0,0,0);stroke-width:1"/>
<line x1="470" y1="140" x2="476" y2="140" style="stroke:rgb(0,0,0);stroke-width:1"/>

<line x1="418" y1="140" x2="438" y2="140" style="stroke:rgb(0,0,0);stroke-width:1;stroke-linecap:round"/>
<rect x="369" y="129" width="44" height="22" style="fill:rgb(255,255,255);stroke:rgb(0,0,0);stroke-width:1;stroke-dasharray:4,1"/>
<text x="391" y="140" style="font-family:Arial;font-size:8pt;fill:rgb(0,0,0);font-weight:bold;text-anchor:middle;dominant-baseline:central">nut</text>
<line x1="370" y1="150" x2="373" y2="147" style="stroke:rgb(0,0,0);stroke-width:2"/>
<path d="M373 147 L375 149 L376 144 L371 145 L373 147 Z" style="fill:rgb(0,0,0)"/>
<rect x="408" y="135" width="10" height="10" style="fill:rgb(255,255,255);stroke:rgb(0,0,0);stroke-width:1"/>
<line x1="410" y1="140" x2="416" y2="140" style="stroke:rgb(0,0,0);stroke-width:1"/>

<line x1="349" y1="140" x2="369" y2="140" style="stroke:rgb(0,0,0);stroke-width:1;stroke-linecap:round"/>
<path d="M315 130 L338 130 L344 136 L344 144 L338 150 L315 150 L309 144 L309 136 Z" style="fill:rgb(255,255,255);stroke:rgb(0,0,0);stroke-width:1"/>
<line x1="322" y1="136" x2="318" y2="136" style="stroke:rgb(0,0,0);stroke-width:1"/>
<line x1="322" y1="140" x2="314" y2="140" style="stroke:rgb(0,0,0);stroke-width:1"/>
<line x1="322" y1="144" x2="318" y2="144" style="stroke:rgb(0,0,0);stroke-width:1"/>
<line x1="318" y1="136" x2="318" y2="144" style="stroke:rgb(0,0,0);stroke-width:1"/>
<line x1="330" y1="136" x2="334" y2="136" style="stroke:rgb(0,0,0);stroke-width:1"/>
<line x1="330" y1="140" x2="338" y2="140" style="stroke:rgb(0,0,0);stroke-width:1"/>
<line x1="330" y1="144" x2="334" y2="144" style="stroke:rgb(0,0,0);stroke-width:1"/>
<line x1="334" y1="136" x2="334" y2="144" style="stroke:rgb(0,0,0);stroke-width:1"/>
<ellipse cx="326" cy="136" rx="2" ry="2" style="rgb(0,0,0)"/>
<ellipse cx="326" cy="140" rx="2" ry="2" style="rgb(0,0,0)"/>
<ellipse cx="326" cy="144" rx="2" ry="2" style="rgb(0,0,0)"/>
<rect x="339" y="135" width="10" height="10" style="fill:rgb(255,255,255);stroke:rgb(0,0,0);stroke-width:1"/>
<line x1="341" y1="140" x2="347" y2="140" style="stroke:rgb(0,0,0);stroke-width:1"/>

<line x1="289" y1="140" x2="309" y2="140" style="stroke:rgb(0,0,0);stroke-width:1;stroke-linecap:round"/>
<line x1="232" y1="104" x2="232" y2="124" style="stroke:rgb(0,0,0);stroke-width:1;stroke-dasharray:4,1"/>
<line x1="232" y1="124" x2="237" y2="129" style="stroke:rgb(0,0,0);stroke-width:1;stroke-dasharray:4,1"/>
<line x1="234" y1="102" x2="232" y2="104" style="stroke:rgb(0,0,0);stroke-width:1;stroke-dasharray:4,1"/>
<path d="M234 102 L236 104 L237 99 L232 100 L234 102 Z" style="fill:rgb(255,255,255);stroke:rgb(0,0,0);stroke-width:1"/>
<rect x="237" y="129" width="47" height="22" style="fill:rgb(255,255,255);stroke:rgb(0,0,0);stroke-width:1"/>
<text x="260.5" y="140" style="font-family:Arial;font-size:8pt;fill:rgb(0,0,0);font-weight:bold;text-anchor:middle;dominant-baseline:central">bolt</text>
<rect x="279" y="135" width="10" height="10" style="fill:rgb(255,255,255);stroke:rgb(0,0,0);stroke-width:1"/>
<line x1="281" y1="140" x2="287" y2="140" style="stroke:rgb(0,0,0);stroke-width:1"/>

<rect x="382" y="184" width="80" height="22" style="fill:rgb(255,255,255);stroke:rgb(0,0,0);stroke-width:1;stroke-dasharray:4,1"/>
<rect x="379" y="181" width="80" height="22" style="fill:rgb(255,255,255);stroke:rgb(0,0,0);stroke-width:1;stroke-dasharray:4,1"/>
<text x="419" y="192" style="font-family:Arial;font-size:8pt;fill:rgb(0,0,0);font-weight:bold;text-anchor:middle;dominant-baseline:central">flow_drilled</text>
<text x="449" y="213" style="font-family:Arial;font-size:7.2pt;fill:rgb(0,0,0);text-anchor:end;dominant-baseline:central">0..∞</text>
<line x1="380" y1="202" x2="383" y2="199" style="stroke:rgb(0,0,0);stroke-width:2"/>
<path d="M383 199 L385 201 L386 196 L381 197 L383 199 Z" style="fill:rgb(0,0,0)"/>

<line x1="359" y1="192" x2="379" y2="192" style="stroke:rgb(0,0,0);stroke-width:1;stroke-linecap:round"/>
<path d="M325 182 L348 182 L354 188 L354 196 L348 202 L325 202 L319 196 L319 188 Z" style="fill:rgb(255,255,255);stroke:rgb(0,0,0);stroke-width:1"/>
<line x1="322" y1="192" x2="351" y2="192" style="stroke:rgb(0,0,0);stroke-width:1"/>
<ellipse cx="331" cy="192" rx="2" ry="2" style="rgb(0,0,0)"/>
<ellipse cx="336" cy="192" rx="2" ry="2" style="rgb(0,0,0)"/>
<ellipse cx="341" cy="192" rx="2" ry="2" style="rgb(0,0,0)"/>
<rect x="349" y="187" width="10" height="10" style="fill:rgb(255,255,255);stroke:rgb(0,0,0);stroke-width:1"/>
<line x1="351" y1="192" x2="357" y2="192" style="stroke:rgb(0,0,0);stroke-width:1"/>

<line x1="299" y1="192" x2="319" y2="192" style="stroke:rgb(0,0,0);stroke-width:1;stroke-linecap:round"/>
<line x1="232" y1="104" x2="232" y2="176" style="stroke:rgb(0,0,0);stroke-width:1;stroke-dasharray:4,1"/>
<line x1="232" y1="176" x2="237" y2="181" style="stroke:rgb(0,0,0);stroke-width:1;stroke-dasharray:4,1"/>
<line x1="234" y1="102" x2="232" y2="104" style="stroke:rgb(0,0,0);stroke-width:1;stroke-dasharray:4,1"/>
<path d="M234 102 L236 104 L237 99 L232 100 L234 102 Z" style="fill:rgb(255,255,255);stroke:rgb(0,0,0);stroke-width:1"/>
<rect x="237" y="181" width="57" height="22" style="fill:rgb(255,255,255);stroke:rgb(0,0,0);stroke-width:1"/>
<text x="265.5" y="192" style="font-family:Arial;font-size:8pt;fill:rgb(0,0,0);font-weight:bold;text-anchor:middle;dominant-baseline:central">screw</text>
<rect x="289" y="187" width="10" height="10" style="fill:rgb(255,255,255);stroke:rgb(0,0,0);stroke-width:1"/>
<line x1="291" y1="192" x2="297" y2="192" style="stroke:rgb(0,0,0);stroke-width:1"/>

<rect x="237" y="233" width="58" height="22" style="fill:rgb(255,255,255);stroke:rgb(0,0,0);stroke-width:1;stroke-dasharray:4,1"/>
<text x="266" y="244" style="font-family:Arial;font-size:8pt;fill:rgb(0,0,0);font-weight:bold;text-anchor:middle;dominant-baseline:central">washer</text>
<line x1="238" y1="254" x2="241" y2="251" style="stroke:rgb(0,0,0);stroke-width:2"/>
<path d="M241 251 L243 253 L244 248 L239 249 L241 251 Z" style="fill:rgb(0,0,0)"/>

<line x1="227" y1="36" x2="237" y2="36" style="stroke:rgb(0,0,0);stroke-width:1;stroke-linecap:round"/>
<line x1="227" y1="88" x2="237" y2="88" style="stroke:rgb(0,0,0);stroke-width:1;stroke-linecap:round"/>
<line x1="227" y1="244" x2="237" y2="244" style="stroke:rgb(0,0,0);stroke-width:1;stroke-linecap:round"/>
<line x1="227" y1="36" x2="227" y2="244" style="stroke:rgb(0,0,0);stroke-width:1;stroke-linecap:round"/>
<line x1="217" y1="140" x2="227" y2="140" style="stroke:rgb(0,0,0);stroke-width:1;stroke-linecap:round"/>
<path d="M183 130 L206 130 L212 136 L212 144 L206 150 L183 150 L177 144 L177 136 Z" style="fill:rgb(255,255,255);stroke:rgb(0,0,0);stroke-width:1"/>
<line x1="190" y1="136" x2="186" y2="136" style="stroke:rgb(0,0,0);stroke-width:1"/>
<line x1="190" y1="140" x2="182" y2="140" style="stroke:rgb(0,0,0);stroke-width:1"/>
<line x1="190" y1="144" x2="186" y2="144" style="stroke:rgb(0,0,0);stroke-width:1"/>
<line x1="186" y1="136" x2="186" y2="144" style="stroke:rgb(0,0,0);stroke-width:1"/>
<line x1="198" y1="136" x2="202" y2="136" style="stroke:rgb(0,0,0);stroke-width:1"/>
<line x1="198" y1="140" x2="206" y2="140" style="stroke:rgb(0,0,0);stroke-width:1"/>
<line x1="198" y1="144" x2="202" y2="144" style="stroke:rgb(0,0,0);stroke-width:1"/>
<line x1="202" y1="136" x2="202" y2="144" style="stroke:rgb(0,0,0);stroke-width:1"/>
<ellipse cx="194" cy="136" rx="2" ry="2" style="rgb(0,0,0)"/>
<ellipse cx="194" cy="140" rx="2" ry="2" style="rgb(0,0,0)"/>
<ellipse cx="194" cy="144" rx="2" ry="2" style="rgb(0,0,0)"/>
<rect x="207" y="135" width="10" height="10" style="fill:rgb(255,255,255);stroke:rgb(0,0,0);stroke-width:1"/>
<line x1="209" y1="140" x2="215" y2="140" style="stroke:rgb(0,0,0);stroke-width:1"/>

<line x1="157" y1="140" x2="177" y2="140" style="stroke:rgb(0,0,0);stroke-width:1;stroke-linecap:round"/>
<rect x="20" y="129" width="132" height="22" style="fill:rgb(255,255,255);stroke:rgb(0,0,0);stroke-width:1"/>
<text x="86" y="140" style="font-family:Arial;font-size:8pt;fill:rgb(0,0,0);font-weight:bold;text-anchor:middle;dominant-baseline:central">threaded_connection</text>
<rect x="147" y="135" width="10" height="10" style="fill:rgb(255,255,255);stroke:rgb(0,0,0);stroke-width:1"/>
<line x1="149" y1="140" x2="155" y2="140" style="stroke:rgb(0,0,0);stroke-width:1"/>
</svg>
