<?xml version="1.0" standalone="no"?>
<!DOCTYPE svg PUBLIC "-//W3C//DTD SVG 1.1//EN" "http://www.w3.org/Graphics/SVG/1.1/DTD/svg11.dtd">
<svg width="359" height="790" version="1.1" xmlns="http://www.w3.org/2000/svg">
<rect x="206" y="25" width="38" height="22" style="fill:rgb(255,255,255);stroke:rgb(0,0,0);stroke-width:1"/>
<text x="225" y="36" style="font-family:Arial;font-size:8pt;fill:rgb(0,0,0);font-weight:bold;text-anchor:middle;dominant-baseline:central">loc</text>
<line x1="208" y1="27" x2="216" y2="27" style="stroke:rgb(0,0,0);stroke-width:1"/>
<line x1="208" y1="29" x2="214" y2="29" style="stroke:rgb(0,0,0);stroke-width:1"/>
<line x1="208" y1="31" x2="214" y2="31" style="stroke:rgb(0,0,0);stroke-width:1"/>
<line x1="208" y1="33" x2="214" y2="33" style="stroke:rgb(0,0,0);stroke-width:1"/>

<rect x="206" y="77" width="67" height="22" style="fill:rgb(255,255,255);stroke:rgb(0,0,0);stroke-width:1;stroke-dasharray:4,1"/>
<text x="239.5" y="88" style="font-family:Arial;font-size:8pt;fill:rgb(0,0,0);font-weight:bold;text-anchor:middle;dominant-baseline:central">appdata</text>
<rect x="268" y="83" width="10" height="10" style="fill:rgb(255,255,255);stroke:rgb(0,0,0);stroke-width:1"/>
<line x1="270" y1="88" x2="276" y2="88" style="stroke:rgb(0,0,0);stroke-width:1"/>
<line x1="273" y1="85" x2="273" y2="91" style="stroke:rgb(0,0,0);stroke-width:1"/>

<rect x="206" y="129" width="67" height="22" style="fill:rgb(255,255,255);stroke:rgb(0,0,0);stroke-width:1;stroke-dasharray:4,1"/>
<text x="239.5" y="140" style="font-family:Arial;font-size:8pt;fill:rgb(0,0,0);font-weight:bold;text-anchor:middle;dominant-baseline:central">femdata</text>
<line x1="207" y1="150" x2="210" y2="147" style="stroke:rgb(0,0,0);stroke-width:2"/>
<path d="M210 147 L212 149 L213 144 L208 145 L210 147 Z" style="fill:rgb(0,0,0)"/>
<rect x="268" y="135" width="10" height="10" style="fill:rgb(255,255,255);stroke:rgb(0,0,0);stroke-width:1"/>
<line x1="270" y1="140" x2="276" y2="140" style="stroke:rgb(0,0,0);stroke-width:1"/>
<line x1="273" y1="137" x2="273" y2="143" style="stroke:rgb(0,0,0);stroke-width:1"/>

<rect x="206" y="181" width="85" height="22" style="fill:rgb(255,255,255);stroke:rgb(0,0,0);stroke-width:1;stroke-dasharray:4,1"/>
<text x="248.5" y="192" style="font-family:Arial;font-size:8pt;fill:rgb(0,0,0);font-weight:bold;text-anchor:middle;dominant-baseline:central">contact_list</text>
<line x1="207" y1="202" x2="210" y2="199" style="stroke:rgb(0,0,0);stroke-width:2"/>
<path d="M210 199 L212 201 L213 196 L208 197 L210 199 Z" style="fill:rgb(0,0,0)"/>
<rect x="286" y="187" width="10" height="10" style="fill:rgb(255,255,255);stroke:rgb(0,0,0);stroke-width:1"/>
<line x1="288" y1="192" x2="294" y2="192" style="stroke:rgb(0,0,0);stroke-width:1"/>
<line x1="291" y1="189" x2="291" y2="195" style="stroke:rgb(0,0,0);stroke-width:1"/>

<rect x="206" y="233" width="138" height="22" style="fill:rgb(255,255,255);stroke:rgb(0,0,0);stroke-width:1;stroke-dasharray:4,1"/>
<text x="275" y="244" style="font-family:Arial;font-size:8pt;fill:rgb(0,0,0);font-weight:bold;text-anchor:middle;dominant-baseline:central">custom_attributes_list</text>
<line x1="207" y1="254" x2="210" y2="251" style="stroke:rgb(0,0,0);stroke-width:2"/>
<path d="M210 251 L212 253 L213 248 L208 249 L210 251 Z" style="fill:rgb(0,0,0)"/>
<rect x="339" y="239" width="10" height="10" style="fill:rgb(255,255,255);stroke:rgb(0,0,0);stroke-width:1"/>
<line x1="341" y1="244" x2="347" y2="244" style="stroke:rgb(0,0,0);stroke-width:1"/>
<line x1="344" y1="241" x2="344" y2="247" style="stroke:rgb(0,0,0);stroke-width:1"/>

<rect x="206" y="285" width="70" height="22" style="fill:rgb(255,255,255);stroke:rgb(0,0,0);stroke-width:1;stroke-dasharray:4,1"/>
<text x="241" y="296" style="font-family:Arial;font-size:8pt;fill:rgb(0,0,0);font-weight:bold;text-anchor:middle;dominant-baseline:central">stacking</text>
<rect x="271" y="291" width="10" height="10" style="fill:rgb(255,255,255);stroke:rgb(0,0,0);stroke-width:1"/>
<line x1="273" y1="296" x2="279" y2="296" style="stroke:rgb(0,0,0);stroke-width:1"/>
<line x1="276" y1="293" x2="276" y2="299" style="stroke:rgb(0,0,0);stroke-width:1"/>

<rect x="206" y="337" width="122" height="22" style="fill:rgb(255,255,255);stroke:rgb(0,0,0);stroke-width:1"/>
<text x="267" y="348" style="font-family:Arial;font-size:8pt;fill:rgb(0,0,0);font-weight:bold;text-anchor:middle;dominant-baseline:central">connection_0d_type</text>
<line x1="208" y1="339" x2="216" y2="339" style="stroke:rgb(0,0,0);stroke-width:1"/>
<line x1="208" y1="341" x2="214" y2="341" style="stroke:rgb(0,0,0);stroke-width:1"/>
<line x1="208" y1="343" x2="214" y2="343" style="stroke:rgb(0,0,0);stroke-width:1"/>
<line x1="208" y1="345" x2="214" y2="345" style="stroke:rgb(0,0,0);stroke-width:1"/>
<line x1="207" y1="358" x2="210" y2="355" style="stroke:rgb(0,0,0);stroke-width:2"/>
<path d="M210 355 L212 357 L213 352 L208 353 L210 355 Z" style="fill:rgb(0,0,0)"/>

<line x1="201" y1="364" x2="201" y2="384" style="stroke:rgb(0,0,0);stroke-width:1;stroke-dasharray:4,1"/>
<line x1="201" y1="384" x2="206" y2="389" style="stroke:rgb(0,0,0);stroke-width:1;stroke-dasharray:4,1"/>
<line x1="203" y1="362" x2="201" y2="364" style="stroke:rgb(0,0,0);stroke-width:1;stroke-dasharray:4,1"/>
<path d="M203 362 L205 364 L206 359 L201 360 L203 362 Z" style="fill:rgb(255,255,255);stroke:rgb(0,0,0);stroke-width:1"/>
<rect x="206" y="389" width="68" height="22" style="fill:rgb(255,255,255);stroke:rgb(0,0,0);stroke-width:1"/>
<text x="240" y="400" style="font-family:Arial;font-size:8pt;fill:rgb(0,0,0);font-weight:bold;text-anchor:middle;dominant-baseline:central">robscan</text>
<rect x="269" y="395" width="10" height="10" style="fill:rgb(255,255,255);stroke:rgb(0,0,0);stroke-width:1"/>
<line x1="271" y1="400" x2="277" y2="400" style="stroke:rgb(0,0,0);stroke-width:1"/>
<line x1="274" y1="397" x2="274" y2="403" style="stroke:rgb(0,0,0);stroke-width:1"/>

<line x1="201" y1="364" x2="201" y2="436" style="stroke:rgb(0,0,0);stroke-width:1;stroke-dasharray:4,1"/>
<line x1="201" y1="436" x2="206" y2="441" style="stroke:rgb(0,0,0);stroke-width:1;stroke-dasharray:4,1"/>
<line x1="203" y1="362" x2="201" y2="364" style="stroke:rgb(0,0,0);stroke-width:1;stroke-dasharray:4,1"/>
<path d="M203 362 L205 364 L206 359 L201 360 L203 362 Z" style="fill:rgb(255,255,255);stroke:rgb(0,0,0);stroke-width:1"/>
<rect x="206" y="441" width="50" height="22" style="fill:rgb(255,255,255);stroke:rgb(0,0,0);stroke-width:1"/>
<text x="231" y="452" style="font-family:Arial;font-size:8pt;fill:rgb(0,0,0);font-weight:bold;text-anchor:middle;dominant-baseline:central">rivet</text>
<rect x="251" y="447" width="10" height="10" style="fill:rgb(255,255,255);stroke:rgb(0,0,0);stroke-width:1"/>
<line x1="253" y1="452" x2="259" y2="452" style="stroke:rgb(0,0,0);stroke-width:1"/>
<line x1="256" y1="449" x2="256" y2="455" style="stroke:rgb(0,0,0);stroke-width:1"/>

<line x1="201" y1="364" x2="201" y2="488" style="stroke:rgb(0,0,0);stroke-width:1;stroke-dasharray:4,1"/>
<line x1="201" y1="488" x2="206" y2="493" style="stroke:rgb(0,0,0);stroke-width:1;stroke-dasharray:4,1"/>
<line x1="203" y1="362" x2="201" y2="364" style="stroke:rgb(0,0,0);stroke-width:1;stroke-dasharray:4,1"/>
<path d="M203 362 L205 364 L206 359 L201 360 L203 362 Z" style="fill:rgb(255,255,255);stroke:rgb(0,0,0);stroke-width:1"/>
<rect x="206" y="493" width="132" height="22" style="fill:rgb(255,255,255);stroke:rgb(0,0,0);stroke-width:1"/>
<text x="272" y="504" style="font-family:Arial;font-size:8pt;fill:rgb(0,0,0);font-weight:bold;text-anchor:middle;dominant-baseline:central">threaded_connection</text>
<rect x="333" y="499" width="10" height="10" style="fill:rgb(255,255,255);stroke:rgb(0,0,0);stroke-width:1"/>
<line x1="335" y1="504" x2="341" y2="504" style="stroke:rgb(0,0,0);stroke-width:1"/>
<line x1="338" y1="501" x2="338" y2="507" style="stroke:rgb(0,0,0);stroke-width:1"/>

<line x1="201" y1="364" x2="201" y2="540" style="stroke:rgb(0,0,0);stroke-width:1;stroke-dasharray:4,1"/>
<line x1="201" y1="540" x2="206" y2="545" style="stroke:rgb(0,0,0);stroke-width:1;stroke-dasharray:4,1"/>
<line x1="203" y1="362" x2="201" y2="364" style="stroke:rgb(0,0,0);stroke-width:1;stroke-dasharray:4,1"/>
<path d="M203 362 L205 364 L206 359 L201 360 L203 362 Z" style="fill:rgb(255,255,255);stroke:rgb(0,0,0);stroke-width:1"/>
<rect x="206" y="545" width="58" height="22" style="fill:rgb(255,255,255);stroke:rgb(0,0,0);stroke-width:1"/>
<text x="235" y="556" style="font-family:Arial;font-size:8pt;fill:rgb(0,0,0);font-weight:bold;text-anchor:middle;dominant-baseline:central">clinch</text>
<rect x="259" y="551" width="10" height="10" style="fill:rgb(255,255,255);stroke:rgb(0,0,0);stroke-width:1"/>
<line x1="261" y1="556" x2="267" y2="556" style="stroke:rgb(0,0,0);stroke-width:1"/>
<line x1="264" y1="553" x2="264" y2="559" style="stroke:rgb(0,0,0);stroke-width:1"/>

<line x1="201" y1="364" x2="201" y2="592" style="stroke:rgb(0,0,0);stroke-width:1;stroke-dasharray:4,1"/>
<line x1="201" y1="592" x2="206" y2="597" style="stroke:rgb(0,0,0);stroke-width:1;stroke-dasharray:4,1"/>
<line x1="203" y1="362" x2="201" y2="364" style="stroke:rgb(0,0,0);stroke-width:1;stroke-dasharray:4,1"/>
<path d="M203 362 L205 364 L206 359 L201 360 L203 362 Z" style="fill:rgb(255,255,255);stroke:rgb(0,0,0);stroke-width:1"/>
<rect x="206" y="597" width="81" height="22" style="fill:rgb(255,255,255);stroke:rgb(0,0,0);stroke-width:1"/>
<text x="246.5" y="608" style="font-family:Arial;font-size:8pt;fill:rgb(0,0,0);font-weight:bold;text-anchor:middle;dominant-baseline:central">heat_stake</text>
<rect x="282" y="603" width="10" height="10" style="fill:rgb(255,255,255);stroke:rgb(0,0,0);stroke-width:1"/>
<line x1="284" y1="608" x2="290" y2="608" style="stroke:rgb(0,0,0);stroke-width:1"/>
<line x1="287" y1="605" x2="287" y2="611" style="stroke:rgb(0,0,0);stroke-width:1"/>

<line x1="201" y1="364" x2="201" y2="644" style="stroke:rgb(0,0,0);stroke-width:1;stroke-dasharray:4,1"/>
<line x1="201" y1="644" x2="206" y2="649" style="stroke:rgb(0,0,0);stroke-width:1;stroke-dasharray:4,1"/>
<line x1="203" y1="362" x2="201" y2="364" style="stroke:rgb(0,0,0);stroke-width:1;stroke-dasharray:4,1"/>
<path d="M203 362 L205 364 L206 359 L201 360 L203 362 Z" style="fill:rgb(255,255,255);stroke:rgb(0,0,0);stroke-width:1"/>
<rect x="206" y="649" width="46" height="22" style="fill:rgb(255,255,255);stroke:rgb(0,0,0);stroke-width:1"/>
<text x="229" y="660" style="font-family:Arial;font-size:8pt;fill:rgb(0,0,0);font-weight:bold;text-anchor:middle;dominant-baseline:central">clip</text>
<rect x="247" y="655" width="10" height="10" style="fill:rgb(255,255,255);stroke:rgb(0,0,0);stroke-width:1"/>
<line x1="249" y1="660" x2="255" y2="660" style="stroke:rgb(0,0,0);stroke-width:1"/>
<line x1="252" y1="657" x2="252" y2="663" style="stroke:rgb(0,0,0);stroke-width:1"/>

<line x1="201" y1="364" x2="201" y2="696" style="stroke:rgb(0,0,0);stroke-width:1;stroke-dasharray:4,1"/>
<line x1="201" y1="696" x2="206" y2="701" style="stroke:rgb(0,0,0);stroke-width:1;stroke-dasharray:4,1"/>
<line x1="203" y1="362" x2="201" y2="364" style="stroke:rgb(0,0,0);stroke-width:1;stroke-dasharray:4,1"/>
<path d="M203 362 L205 364 L206 359 L201 360 L203 362 Z" style="fill:rgb(255,255,255);stroke:rgb(0,0,0);stroke-width:1"/>
<rect x="206" y="701" width="46" height="22" style="fill:rgb(255,255,255);stroke:rgb(0,0,0);stroke-width:1"/>
<text x="229" y="712" style="font-family:Arial;font-size:8pt;fill:rgb(0,0,0);font-weight:bold;text-anchor:middle;dominant-baseline:central">nail</text>
<rect x="247" y="707" width="10" height="10" style="fill:rgb(255,255,255);stroke:rgb(0,0,0);stroke-width:1"/>
<line x1="249" y1="712" x2="255" y2="712" style="stroke:rgb(0,0,0);stroke-width:1"/>
<line x1="252" y1="709" x2="252" y2="715" style="stroke:rgb(0,0,0);stroke-width:1"/>

<line x1="201" y1="364" x2="201" y2="748" style="stroke:rgb(0,0,0);stroke-width:1;stroke-dasharray:4,1"/>
<line x1="201" y1="748" x2="206" y2="753" style="stroke:rgb(0,0,0);stroke-width:1;stroke-dasharray:4,1"/>
<line x1="203" y1="362" x2="201" y2="364" style="stroke:rgb(0,0,0);stroke-width:1;stroke-dasharray:4,1"/>
<path d="M203 362 L205 364 L206 359 L201 360 L203 362 Z" style="fill:rgb(255,255,255);stroke:rgb(0,0,0);stroke-width:1"/>
<rect x="206" y="753" width="94" height="22" style="fill:rgb(255,255,255);stroke:rgb(0,0,0);stroke-width:1"/>
<text x="253" y="764" style="font-family:Arial;font-size:8pt;fill:rgb(0,0,0);font-weight:bold;text-anchor:middle;dominant-baseline:central">rotation_joint</text>
<rect x="295" y="759" width="10" height="10" style="fill:rgb(255,255,255);stroke:rgb(0,0,0);stroke-width:1"/>
<line x1="297" y1="764" x2="303" y2="764" style="stroke:rgb(0,0,0);stroke-width:1"/>
<line x1="300" y1="761" x2="300" y2="767" style="stroke:rgb(0,0,0);stroke-width:1"/>

<line x1="196" y1="36" x2="206" y2="36" style="stroke:rgb(0,0,0);stroke-width:1;stroke-linecap:round"/>
<line x1="196" y1="88" x2="206" y2="88" style="stroke:rgb(0,0,0);stroke-width:1;stroke-linecap:round"/>
<line x1="196" y1="140" x2="206" y2="140" style="stroke:rgb(0,0,0);stroke-width:1;stroke-linecap:round"/>
<line x1="196" y1="192" x2="206" y2="192" style="stroke:rgb(0,0,0);stroke-width:1;stroke-linecap:round"/>
<line x1="196" y1="244" x2="206" y2="244" style="stroke:rgb(0,0,0);stroke-width:1;stroke-linecap:round"/>
<line x1="196" y1="296" x2="206" y2="296" style="stroke:rgb(0,0,0);stroke-width:1;stroke-linecap:round"/>
<line x1="196" y1="348" x2="206" y2="348" style="stroke:rgb(0,0,0);stroke-width:1;stroke-linecap:round"/>
<line x1="196" y1="36" x2="196" y2="764" style="stroke:rgb(0,0,0);stroke-width:1;stroke-linecap:round"/>
<line x1="186" y1="400" x2="196" y2="400" style="stroke:rgb(0,0,0);stroke-width:1;stroke-linecap:round"/>
<path d="M152 390 L175 390 L181 396 L181 404 L175 410 L152 410 L146 404 L146 396 Z" style="fill:rgb(255,255,255);stroke:rgb(0,0,0);stroke-width:1"/>
<line x1="159" y1="396" x2="155" y2="396" style="stroke:rgb(0,0,0);stroke-width:1"/>
<line x1="159" y1="400" x2="151" y2="400" style="stroke:rgb(0,0,0);stroke-width:1"/>
<line x1="159" y1="404" x2="155" y2="404" style="stroke:rgb(0,0,0);stroke-width:1"/>
<line x1="155" y1="396" x2="155" y2="404" style="stroke:rgb(0,0,0);stroke-width:1"/>
<line x1="167" y1="396" x2="171" y2="396" style="stroke:rgb(0,0,0);stroke-width:1"/>
<line x1="167" y1="400" x2="175" y2="400" style="stroke:rgb(0,0,0);stroke-width:1"/>
<line x1="167" y1="404" x2="171" y2="404" style="stroke:rgb(0,0,0);stroke-width:1"/>
<line x1="171" y1="396" x2="171" y2="404" style="stroke:rgb(0,0,0);stroke-width:1"/>
<ellipse cx="163" cy="396" rx="2" ry="2" style="rgb(0,0,0)"/>
<ellipse cx="163" cy="400" rx="2" ry="2" style="rgb(0,0,0)"/>
<ellipse cx="163" cy="404" rx="2" ry="2" style="rgb(0,0,0)"/>
<rect x="176" y="395" width="10" height="10" style="fill:rgb(255,255,255);stroke:rgb(0,0,0);stroke-width:1"/>
<line x1="178" y1="400" x2="184" y2="400" style="stroke:rgb(0,0,0);stroke-width:1"/>

<line x1="126" y1="400" x2="146" y2="400" style="stroke:rgb(0,0,0);stroke-width:1;stroke-linecap:round"/>
<rect x="20" y="389" width="101" height="22" style="fill:rgb(255,255,255);stroke:rgb(0,0,0);stroke-width:1"/>
<text x="70.5" y="400" style="font-family:Arial;font-size:8pt;fill:rgb(0,0,0);font-weight:bold;text-anchor:middle;dominant-baseline:central">connection_0d</text>
<rect x="116" y="395" width="10" height="10" style="fill:rgb(255,255,255);stroke:rgb(0,0,0);stroke-width:1"/>
<line x1="118" y1="400" x2="124" y2="400" style="stroke:rgb(0,0,0);stroke-width:1"/>
</svg>
