<?xml version="1.0" standalone="no"?>
<!DOCTYPE svg PUBLIC "-//W3C//DTD SVG 1.1//EN" "http://www.w3.org/Graphics/SVG/1.1/DTD/svg11.dtd">
<svg width="273" height="374" version="1.1" xmlns="http://www.w3.org/2000/svg">
<rect x="155" y="25" width="106" height="22" style="fill:rgb(255,255,255);stroke:rgb(0,0,0);stroke-width:1;stroke-dasharray:4,1"/>
<text x="208" y="36" style="font-family:Arial;font-size:8pt;fill:rgb(0,0,0);font-weight:bold;text-anchor:middle;dominant-baseline:central">normal_direction</text>
<line x1="156" y1="46" x2="159" y2="43" style="stroke:rgb(0,0,0);stroke-width:2"/>
<path d="M159 43 L161 45 L162 40 L157 41 L159 43 Z" style="fill:rgb(0,0,0)"/>

<rect x="155" y="77" width="71" height="22" style="fill:rgb(255,255,255);stroke:rgb(0,0,0);stroke-width:1;stroke-dasharray:4,1"/>
<text x="190.5" y="88" style="font-family:Arial;font-size:8pt;fill:rgb(0,0,0);font-weight:bold;text-anchor:middle;dominant-baseline:central">rivet_type</text>
<line x1="157" y1="79" x2="165" y2="79" style="stroke:rgb(0,0,0);stroke-width:1"/>
<line x1="157" y1="81" x2="163" y2="81" style="stroke:rgb(0,0,0);stroke-width:1"/>
<line x1="157" y1="83" x2="163" y2="83" style="stroke:rgb(0,0,0);stroke-width:1"/>
<line x1="157" y1="85" x2="163" y2="85" style="stroke:rgb(0,0,0);stroke-width:1"/>
<line x1="156" y1="98" x2="159" y2="95" style="stroke:rgb(0,0,0);stroke-width:2"/>
<path d="M159 95 L161 97 L162 92 L157 93 L159 95 Z" style="fill:rgb(0,0,0)"/>

<line x1="150" y1="104" x2="150" y2="124" style="stroke:rgb(0,0,0);stroke-width:1;stroke-dasharray:4,1"/>
<line x1="150" y1="124" x2="155" y2="129" style="stroke:rgb(0,0,0);stroke-width:1;stroke-dasharray:4,1"/>
<line x1="152" y1="102" x2="150" y2="104" style="stroke:rgb(0,0,0);stroke-width:1;stroke-dasharray:4,1"/>
<path d="M152 102 L154 104 L155 99 L150 100 L152 102 Z" style="fill:rgb(255,255,255);stroke:rgb(0,0,0);stroke-width:1"/>
<rect x="155" y="129" width="47" height="22" style="fill:rgb(255,255,255);stroke:rgb(0,0,0);stroke-width:1"/>
<text x="178.5" y="140" style="font-family:Arial;font-size:8pt;fill:rgb(0,0,0);font-weight:bold;text-anchor:middle;dominant-baseline:central">blind</text>

<line x1="150" y1="104" x2="150" y2="176" style="stroke:rgb(0,0,0);stroke-width:1;stroke-dasharray:4,1"/>
<line x1="150" y1="176" x2="155" y2="181" style="stroke:rgb(0,0,0);stroke-width:1;stroke-dasharray:4,1"/>
<line x1="152" y1="102" x2="150" y2="104" style="stroke:rgb(0,0,0);stroke-width:1;stroke-dasharray:4,1"/>
<path d="M152 102 L154 104 L155 99 L150 100 L152 102 Z" style="fill:rgb(255,255,255);stroke:rgb(0,0,0);stroke-width:1"/>
<rect x="155" y="181" width="86" height="22" style="fill:rgb(255,255,255);stroke:rgb(0,0,0);stroke-width:1"/>
<text x="198" y="192" style="font-family:Arial;font-size:8pt;fill:rgb(0,0,0);font-weight:bold;text-anchor:middle;dominant-baseline:central">self_piercing</text>

<line x1="150" y1="104" x2="150" y2="228" style="stroke:rgb(0,0,0);stroke-width:1;stroke-dasharray:4,1"/>
<line x1="150" y1="228" x2="155" y2="233" style="stroke:rgb(0,0,0);stroke-width:1;stroke-dasharray:4,1"/>
<line x1="152" y1="102" x2="150" y2="104" style="stroke:rgb(0,0,0);stroke-width:1;stroke-dasharray:4,1"/>
<path d="M152 102 L154 104 L155 99 L150 100 L152 102 Z" style="fill:rgb(255,255,255);stroke:rgb(0,0,0);stroke-width:1"/>
<rect x="155" y="233" width="47" height="22" style="fill:rgb(255,255,255);stroke:rgb(0,0,0);stroke-width:1"/>
<text x="178.5" y="244" style="font-family:Arial;font-size:8pt;fill:rgb(0,0,0);font-weight:bold;text-anchor:middle;dominant-baseline:central">solid</text>

<line x1="150" y1="104" x2="150" y2="280" style="stroke:rgb(0,0,0);stroke-width:1;stroke-dasharray:4,1"/>
<line x1="150" y1="280" x2="155" y2="285" style="stroke:rgb(0,0,0);stroke-width:1;stroke-dasharray:4,1"/>
<line x1="152" y1="102" x2="150" y2="104" style="stroke:rgb(0,0,0);stroke-width:1;stroke-dasharray:4,1"/>
<path d="M152 102 L154 104 L155 99 L150 100 L152 102 Z" style="fill:rgb(255,255,255);stroke:rgb(0,0,0);stroke-width:1"/>
<rect x="155" y="285" width="49" height="22" style="fill:rgb(255,255,255);stroke:rgb(0,0,0);stroke-width:1"/>
<text x="179.5" y="296" style="font-family:Arial;font-size:8pt;fill:rgb(0,0,0);font-weight:bold;text-anchor:middle;dominant-baseline:central">swop</text>

<line x1="150" y1="104" x2="150" y2="332" style="stroke:rgb(0,0,0);stroke-width:1;stroke-dasharray:4,1"/>
<line x1="150" y1="332" x2="155" y2="337" style="stroke:rgb(0,0,0);stroke-width:1;stroke-dasharray:4,1"/>
<line x1="152" y1="102" x2="150" y2="104" style="stroke:rgb(0,0,0);stroke-width:1;stroke-dasharray:4,1"/>
<path d="M152 102 L154 104 L155 99 L150 100 L152 102 Z" style="fill:rgb(255,255,255);stroke:rgb(0,0,0);stroke-width:1"/>
<rect x="155" y="337" width="108" height="22" style="fill:rgb(255,255,255);stroke:rgb(0,0,0);stroke-width:1"/>
<text x="209" y="348" style="font-family:Arial;font-size:8pt;fill:rgb(0,0,0);font-weight:bold;text-anchor:middle;dominant-baseline:central">clinch_rivet_stud</text>

<line x1="145" y1="36" x2="155" y2="36" style="stroke:rgb(0,0,0);stroke-width:1;stroke-linecap:round"/>
<line x1="145" y1="88" x2="155" y2="88" style="stroke:rgb(0,0,0);stroke-width:1;stroke-linecap:round"/>
<line x1="145" y1="36" x2="145" y2="348" style="stroke:rgb(0,0,0);stroke-width:1;stroke-linecap:round"/>
<line x1="135" y1="192" x2="145" y2="192" style="stroke:rgb(0,0,0);stroke-width:1;stroke-linecap:round"/>
<path d="M101 182 L124 182 L130 188 L130 196 L124 202 L101 202 L95 196 L95 188 Z" style="fill:rgb(255,255,255);stroke:rgb(0,0,0);stroke-width:1"/>
<line x1="108" y1="188" x2="104" y2="188" style="stroke:rgb(0,0,0);stroke-width:1"/>
<line x1="108" y1="192" x2="100" y2="192" style="stroke:rgb(0,0,0);stroke-width:1"/>
<line x1="108" y1="196" x2="104" y2="196" style="stroke:rgb(0,0,0);stroke-width:1"/>
<line x1="104" y1="188" x2="104" y2="196" style="stroke:rgb(0,0,0);stroke-width:1"/>
<line x1="116" y1="188" x2="120" y2="188" style="stroke:rgb(0,0,0);stroke-width:1"/>
<line x1="116" y1="192" x2="124" y2="192" style="stroke:rgb(0,0,0);stroke-width:1"/>
<line x1="116" y1="196" x2="120" y2="196" style="stroke:rgb(0,0,0);stroke-width:1"/>
<line x1="120" y1="188" x2="120" y2="196" style="stroke:rgb(0,0,0);stroke-width:1"/>
<ellipse cx="112" cy="188" rx="2" ry="2" style="rgb(0,0,0)"/>
<ellipse cx="112" cy="192" rx="2" ry="2" style="rgb(0,0,0)"/>
<ellipse cx="112" cy="196" rx="2" ry="2" style="rgb(0,0,0)"/>
<rect x="125" y="187" width="10" height="10" style="fill:rgb(255,255,255);stroke:rgb(0,0,0);stroke-width:1"/>
<line x1="127" y1="192" x2="133" y2="192" style="stroke:rgb(0,0,0);stroke-width:1"/>

<line x1="75" y1="192" x2="95" y2="192" style="stroke:rgb(0,0,0);stroke-width:1;stroke-linecap:round"/>
<rect x="20" y="181" width="50" height="22" style="fill:rgb(255,255,255);stroke:rgb(0,0,0);stroke-width:1"/>
<text x="45" y="192" style="font-family:Arial;font-size:8pt;fill:rgb(0,0,0);font-weight:bold;text-anchor:middle;dominant-baseline:central">rivet</text>
<rect x="65" y="187" width="10" height="10" style="fill:rgb(255,255,255);stroke:rgb(0,0,0);stroke-width:1"/>
<line x1="67" y1="192" x2="73" y2="192" style="stroke:rgb(0,0,0);stroke-width:1"/>
</svg>
